#N canvas 856 131 450 300 10;
#X obj 58 476 dac~;
#X floatatom 58 224 5 0 0 0 - - -;
#X obj 58 248 / 12;
#X obj 58 272 t b f;
#X obj 58 329 pow;
#X msg 58 301 2;
#X obj 58 353 * 440;
#X floatatom 58 378 5 0 0 0 - - -;
#X obj 58 148 hradio 20 1 0 13 empty empty empty 0 -8 0 10 -262144
-1 -1 3;
#X floatatom 85 93 5 0 0 0 - - -;
#X obj 58 407 osc~;
#X obj 58 445 *~;
#X msg 108 390 1 \, 0 1000;
#X obj 108 418 line~;
#X obj 58 172 t f b;
#X obj 85 71 mtof;
#X floatatom 85 49 5 0 0 0 - - -;
#X text 59 132 DO;
#X text 102 131 RE;
#X text 143 131 MI;
#X text 161 131 FA;
#X text 200 131 SO;
#X text 240 130 LA;
#X text 301 131 DO;
#X obj 128 267 print DO;
#X obj 128 291 print RE;
#X obj 128 315 print MI;
#X obj 186 267 print FA;
#X obj 186 291 print SO;
#X obj 186 315 print LA;
#X obj 244 292 print DO;
#X obj 128 239 sel 0 2 4 5 7 9 11 12;
#X text 280 131 TI;
#X obj 243 268 print TI;
#X connect 1 0 2 0;
#X connect 2 0 3 0;
#X connect 3 0 5 0;
#X connect 3 1 4 1;
#X connect 4 0 6 0;
#X connect 5 0 4 0;
#X connect 6 0 7 0;
#X connect 7 0 10 0;
#X connect 8 0 14 0;
#X connect 8 0 31 0;
#X connect 9 0 6 1;
#X connect 10 0 11 0;
#X connect 11 0 0 0;
#X connect 11 0 0 1;
#X connect 12 0 13 0;
#X connect 13 0 11 1;
#X connect 14 0 1 0;
#X connect 14 1 12 0;
#X connect 15 0 9 0;
#X connect 16 0 15 0;
#X connect 31 0 24 0;
#X connect 31 1 25 0;
#X connect 31 2 26 0;
#X connect 31 3 27 0;
#X connect 31 4 28 0;
#X connect 31 5 29 0;
#X connect 31 6 33 0;
#X connect 31 7 30 0;
